<?xml version="1.0" encoding="iso-8859-1"?>
<!-- Uploaded to: SVG Repo, www.svgrepo.com, Generator: SVG Repo Mixer Tools -->
<svg height="800px" width="800px" version="1.1" id="Layer_1" xmlns="http://www.w3.org/2000/svg" xmlns:xlink="http://www.w3.org/1999/xlink" 
	 viewBox="0 0 503.466 503.466" xml:space="preserve">
<path style="fill:#FFD0A1;" d="M139.945,260.266L123.731,38.4c0-18.773,11.947-34.133,30.72-34.133s27.307,14.507,29.013,34.133
	l25.6,196.267c0,0,0-5.12,0-8.533c0-18.773,15.36-34.133,34.133-34.133s34.133,21.333,34.133,42.667
	c0-18.773,11.947-34.133,30.72-34.133c17.067,0,28.16,15.36,29.867,28.16L387.411,115.2c8.533-17.067,17.067-29.867,30.72-25.6
	c12.8,3.413,14.507,13.653,11.947,25.6c0,0-24.747,110.933-33.28,162.133c-8.533,51.2-8.533,145.067-34.133,221.867h-204.8
	c-9.387-48.64-37.547-104.96-65.707-153.6c-3.413-5.973-6.827-11.947-11.093-17.92c-18.773-30.72-7.68-75.947,28.16-75.947
	c0,0,17.067-1.707,28.16,8.533H139.945z"/>
<path style="fill:#51565F;" d="M362.665,503.466h-204.8c-1.707,0-3.413-1.707-4.267-3.413c-8.533-40.96-29.867-92.16-64.853-151.893
	c-3.413-5.973-6.827-11.947-11.093-17.92c-11.947-19.627-12.8-44.373-2.56-62.293c7.68-12.8,19.627-20.48,34.133-20.48
	c2.56,0,4.267,1.707,4.267,4.267c0,2.56-1.707,4.267-4.267,4.267c-15.36,0-23.04,8.533-27.307,16.213
	c-8.533,15.36-7.68,36.693,2.56,53.76c3.413,5.973,7.68,11.947,11.093,17.92c34.133,58.88,56.32,110.08,64.853,151.04h197.973
	c17.067-52.053,22.187-111.787,26.453-160.427c1.707-22.187,3.413-41.813,6.827-58.027c8.533-50.347,33.28-161.28,33.28-162.133
	c3.413-15.36-2.56-18.773-8.533-21.333c-9.387-2.56-16.213,5.973-25.6,23.893L341.331,230.4c-0.853,1.707-2.56,2.56-4.267,2.56
	s-3.413-1.707-3.413-3.413c-1.707-11.947-11.093-24.747-25.6-24.747c-15.36,0-26.453,11.947-26.453,29.867
	c0,2.56-1.707,4.267-4.267,4.267s-4.267-1.707-4.267-4.267c0-20.48-14.507-38.4-29.867-38.4c-16.213,0-29.867,13.653-29.867,29.867
	c0,3.413,0,8.533,0,8.533c0,2.56-1.707,4.267-4.267,4.267c-2.56,0-4.267-1.707-4.267-3.413l-25.6-196.267
	c-2.56-20.48-10.24-30.72-24.747-30.72c-15.36,0-26.453,11.947-26.453,29.867l17.067,238.933c0,2.56-1.707,4.267-4.267,4.267
	c-2.56,0-4.267-1.707-4.267-4.267L119.464,38.4c0-22.187,14.507-38.4,34.987-38.4c18.773,0,30.72,13.653,33.28,37.547
	l22.187,169.813c6.827-11.947,18.773-19.627,33.28-19.627s28.16,11.093,34.133,27.307c5.973-11.093,17.067-18.773,30.72-18.773
	c13.653,0,24.747,9.387,30.72,20.48l45.227-103.253c7.68-14.507,17.067-33.28,35.84-28.16c13.653,4.267,17.92,14.507,14.507,30.72
	c0,0.853-24.747,110.933-33.28,161.28c-2.56,15.36-4.267,34.987-5.973,57.173c-4.267,49.493-10.24,111.787-28.16,165.547
	C366.078,502.613,364.371,503.466,362.665,503.466z"/>
</svg>